<svg xmlns="http://www.w3.org/2000/svg" version="1.1" xmlns:xlink="http://www.w3.org/1999/xlink" xmlns:svgjs="http://svgjs.dev/svgjs" width="128" height="128" viewBox="0 0 128 128"><g transform="matrix(0.8046875,0,0,0.8046875,12.333870967741937,12.333870967741937)"><svg viewBox="0 0 155 155" data-background-color="#ffffff" preserveAspectRatio="xMidYMid meet" height="128" width="128" xmlns="http://www.w3.org/2000/svg" xmlns:xlink="http://www.w3.org/1999/xlink"><g id="tight-bounds" transform="matrix(1,0,0,1,0.25,0.25)"><svg viewBox="0 0 154.5 154.5" height="154.5" width="154.5"><g><svg></svg></g><g><svg viewBox="0 0 154.5 154.5" height="154.5" width="154.5"><g transform="matrix(1,0,0,1,29.509500000000003,51.55973093841642)"><svg viewBox="0 0 95.481 51.380538123167156" height="51.380538123167156" width="95.481"><g><svg viewBox="0 0 95.481 51.380538123167156" height="51.380538123167156" width="95.481"><g><svg viewBox="0 0 95.481 51.380538123167156" height="51.380538123167156" width="95.481"><g id="textblocktransform"><svg viewBox="0 0 95.481 51.380538123167156" height="51.380538123167156" width="95.481" id="textblock"><g><svg viewBox="0 0 95.481 51.380538123167156" height="51.380538123167156" width="95.481"><g transform="matrix(1,0,0,1,0,0)"><svg width="95.481" viewBox="2.2 -35.7 68.2 36.7" height="51.380538123167156" data-palette-color="#1d1a19"><path d="M2.2-16.25Q2.2-21.65 4.3-26 6.4-30.35 10.78-33.02 15.15-35.7 21.15-35.7L21.15-35.7Q24.2-35.7 27.3-34.8 30.4-33.9 32.25-33L32.25-33 34.1-32.05Q34.25-32.05 34.6-32.3 34.95-32.55 35.18-32.55 35.4-32.55 35.65-32.35 35.9-32.15 35.93-31.23 35.95-30.3 36.13-28.68 36.3-27.05 36.45-26 36.6-24.95 36.6-24.75L36.6-24.75Q36.6-23.85 36-23.85L36-23.85Q35.55-23.85 35.15-24.55L35.15-24.55Q30.3-33.65 21.15-33.65L21.15-33.65Q14.9-33.65 10.9-29.65 6.9-25.65 6.9-19.2L6.9-19.2Q6.9-12 10.6-6.9L10.6-6.9Q12.5-4.3 15.8-2.8 19.1-1.3 23.5-1.3L23.5-1.3Q30.7-1.3 35.6-8.8L35.6-8.8Q35.8-9.15 36.35-9.15L36.35-9.15Q36.8-9.15 36.8-8.53 36.8-7.9 36.63-6.98 36.45-6.05 36.2-4.93 35.95-3.8 35.9-3.55L35.9-3.55Q35.8-3 35.1-2.65L35.1-2.65Q32.4-1.35 30.9-0.7L30.9-0.7Q26.9 1 22.38 1 17.85 1 14.35-0.05 10.85-1.1 8.63-2.8 6.4-4.5 4.9-6.8L4.9-6.8Q2.2-10.85 2.2-16.25ZM43.05-1.4L43.05-1.4 44.2-1.45Q45.25-1.45 45.95-3.2L45.95-3.2Q46.4-4.35 46.5-6.85 46.6-9.35 46.6-21.7L46.6-21.7 46.6-30.2Q46.6-31 46.1-32L46.1-32Q45.1-34.1 42.2-34.1L42.2-34.1Q41.35-34.1 41.35-34.7L41.35-34.7Q41.35-35.45 41.8-35.45L41.8-35.45 43.8-35.4 51.1-35.45 56.6-35.6Q61.15-35.6 64.2-33.43 67.25-31.25 67.25-27.25L67.25-27.25Q67.25-22.95 62.75-20.2L62.75-20.2Q62.25-19.85 62.25-19.8L62.25-19.8Q62.25-19.65 63.1-19.43 63.95-19.2 65.15-18.68 66.35-18.15 67.52-17.25 68.7-16.35 69.55-14.58 70.4-12.8 70.4-10.53 70.4-8.25 69.15-5.8 67.9-3.35 65.95-2 64-0.65 62.1-0.13 60.2 0.4 57.85 0.4 55.5 0.4 52.2 0.13 48.9-0.15 48.55-0.15L48.55-0.15 44.25 0.05 43.55 0.05Q42.5 0.05 42.5-0.68 42.5-1.4 43.05-1.4ZM50.45-10.2L50.45-6.8 50.4-4.6Q50.4-1.6 55.3-1.6L55.3-1.6 56.45-1.6Q59.15-1.6 61.12-1.93 63.1-2.25 64.62-4.3 66.15-6.35 66.15-9 66.15-11.65 65.25-13.43 64.35-15.2 63.2-16.1 62.05-17 60.45-17.5L60.45-17.5Q58.25-18.2 56.35-18.2L56.35-18.2 52.45-18.25 51.7-18.3Q51.25-18.3 51.05-18.18 50.85-18.05 50.65-17.2L50.65-17.2Q50.45-16.15 50.45-10.2L50.45-10.2ZM50.7-28.7L50.7-27.25Q50.7-20.95 51.05-20.25L51.05-20.25Q51.25-19.9 53.9-19.9L53.9-19.9 57.1-19.9Q60.25-19.9 61.82-21.55 63.4-23.2 63.4-25.9 63.4-28.6 60.77-31.23 58.15-33.85 53.3-33.85L53.3-33.85Q51.75-33.85 51.22-32.93 50.7-32 50.7-28.7L50.7-28.7Z" opacity="1" transform="matrix(1,0,0,1,0,0)" fill="#1d1a19" class="undefined-text-0" data-fill-palette-color="primary" id="text-0"></path></svg></g></svg></g></svg></g></svg></g></svg></g></svg></g><g><path d="M0 154.5v-154.5h154.5v154.5zM149.866 149.866v-145.232h-145.232v145.232z" fill="#ff7a57" fill-rule="nonzero" stroke="none" stroke-width="1" stroke-linecap="butt" stroke-linejoin="miter" stroke-miterlimit="10" stroke-dasharray="" stroke-dashoffset="0" font-family="none" font-weight="none" font-size="none" text-anchor="none" style="mix-blend-mode: normal" data-fill-palette-color="tertiary"></path></g></svg></g><defs></defs></svg><rect width="154.5" height="154.5" fill="none" stroke="none" visibility="hidden"></rect></g></svg></g></svg>